<svg width="18" height="14" viewBox="0 0 18 14" fill="none" xmlns="http://www.w3.org/2000/svg">
<path d="M18 1.12514V12.3751C18 13.0136 17.5134 13.5001 16.875 13.5001H15.75V3.2902L9 8.13895L2.25 3.2902V13.5001H1.125C0.486562 13.5001 0 13.0136 0 12.3751V1.12514C0 0.805641 0.120375 0.524392 0.322313 0.325267C0.427485 0.220038 0.552741 0.13703 0.690634 0.0811769C0.828528 0.0253238 0.976243 -0.00223416 1.125 0.000141511H1.50019L9 5.43783L16.4998 0.000141511H16.875C17.1945 0.000141511 17.4757 0.120517 17.6777 0.325267C17.8796 0.524392 18 0.805641 18 1.12514Z" fill="white"/>
</svg>
