<svg width="19" height="19" viewBox="0 0 19 19" fill="none" xmlns="http://www.w3.org/2000/svg">
<path d="M9.48153 5.01494C7.00853 5.01494 5.01271 7.01081 5.01271 9.48385C5.01271 11.9569 7.00853 13.9528 9.48153 13.9528C11.9545 13.9528 13.9504 11.9569 13.9504 9.48385C13.9504 7.01081 11.9545 5.01494 9.48153 5.01494ZM9.48153 12.3883C7.88225 12.3883 6.57712 11.0832 6.57712 9.48385C6.57712 7.88454 7.88225 6.57939 9.48153 6.57939C11.0808 6.57939 12.3859 7.88454 12.3859 9.48385C12.3859 11.0832 11.0808 12.3883 9.48153 12.3883ZM14.1334 3.7904C13.556 3.7904 13.0897 4.25669 13.0897 4.83409C13.0897 5.4115 13.556 5.87778 14.1334 5.87778C14.7108 5.87778 15.177 5.41368 15.177 4.83409C15.1772 4.69699 15.1503 4.56119 15.098 4.43449C15.0456 4.30778 14.9687 4.19266 14.8717 4.09571C14.7748 3.99876 14.6597 3.92189 14.533 3.8695C14.4063 3.81711 14.2705 3.79023 14.1334 3.7904ZM18.1926 9.48385C18.1926 8.2811 18.2035 7.08925 18.1359 5.88868C18.0684 4.49419 17.7503 3.25658 16.7306 2.23685C15.7087 1.21495 14.4733 0.899015 13.0788 0.831469C11.8761 0.763924 10.6843 0.774818 9.48371 0.774818C8.28098 0.774818 7.08915 0.763924 5.8886 0.831469C4.49414 0.899015 3.25655 1.21713 2.23685 2.23685C1.21497 3.25875 0.899035 4.49419 0.831491 5.88868C0.763947 7.09142 0.774841 8.28328 0.774841 9.48385C0.774841 10.6844 0.763947 11.8785 0.831491 13.079C0.899035 14.4735 1.21715 15.7111 2.23685 16.7308C3.25873 17.7527 4.49414 18.0687 5.8886 18.1362C7.09133 18.2038 8.28316 18.1929 9.48371 18.1929C10.6864 18.1929 11.8783 18.2038 13.0788 18.1362C14.4733 18.0687 15.7109 17.7506 16.7306 16.7308C17.7524 15.7089 18.0684 14.4735 18.1359 13.079C18.2057 11.8785 18.1926 10.6866 18.1926 9.48385ZM16.2752 14.6217C16.1161 15.0182 15.9244 15.3146 15.6172 15.6196C15.31 15.9268 15.0158 16.1186 14.6193 16.2776C13.4732 16.733 10.7518 16.6306 9.48153 16.6306C8.21126 16.6306 5.4877 16.733 4.34162 16.2798C3.94507 16.1208 3.64875 15.929 3.34371 15.6218C3.03649 15.3146 2.84475 15.0204 2.68569 14.6239C2.23249 13.4756 2.3349 10.7541 2.3349 9.48385C2.3349 8.21355 2.23249 5.48994 2.68569 4.34384C2.84475 3.94728 3.03649 3.65096 3.34371 3.34591C3.65092 3.04087 3.94507 2.84694 4.34162 2.68789C5.4877 2.23468 8.21126 2.33708 9.48153 2.33708C10.7518 2.33708 13.4754 2.23468 14.6214 2.68789C15.018 2.84694 15.3143 3.03869 15.6194 3.34591C15.9266 3.65313 16.1183 3.94728 16.2774 4.34384C16.7306 5.48994 16.6282 8.21355 16.6282 9.48385C16.6282 10.7541 16.7306 13.4756 16.2752 14.6217Z" fill="white"/>
</svg>
