<svg width="19" height="17" viewBox="0 0 19 17" fill="none" xmlns="http://www.w3.org/2000/svg">
<path d="M17.3697 2.66674L18.8065 1.1142V0.77417H13.8307L10.2846 10.7484L6.25098 0.77417H1.0338V1.1142L2.71192 3.39688C2.87598 3.56557 2.96036 3.81335 2.93926 4.06112V13.031C2.99083 13.3553 2.89942 13.6847 2.69786 13.9193L0.806452 16.5104V16.8452H6.16426V16.5051L4.2752 13.922C4.17399 13.8064 4.09785 13.6661 4.05273 13.512C4.00761 13.358 3.99471 13.1943 4.01505 13.0337V5.27363L8.71895 16.8504H9.26505L13.3104 5.27363V14.4966C13.3104 14.7391 13.3104 14.7892 13.1697 14.95L11.7143 16.5394V16.8794H18.7736V16.5394L17.3697 14.9869C17.2479 14.8814 17.1846 14.7048 17.2104 14.5335V3.12011C17.1982 3.0354 17.2066 2.94859 17.2347 2.8688C17.2627 2.78901 17.3094 2.71921 17.3697 2.66674Z" fill="white"/>
</svg>
