<svg width="19" height="18" viewBox="0 0 19 18" fill="none" xmlns="http://www.w3.org/2000/svg">
<path d="M9.5171 0.774171C4.70445 0.772225 0.80645 4.66828 0.80645 9.47704C0.80645 13.2797 3.24489 16.5121 6.6408 17.6992C7.09812 17.814 7.02807 17.489 7.02807 17.2672V15.759C4.38724 16.0684 4.2802 14.3208 4.10311 14.0289C3.74503 13.4178 2.89849 13.2622 3.15148 12.9702C3.75281 12.6608 4.36583 13.0481 5.07615 14.097C5.58991 14.8579 6.59214 14.7295 7.10007 14.603C7.211 14.1457 7.44842 13.737 7.77536 13.4198C5.03917 12.9294 3.89877 11.2596 3.89877 9.27464C3.89877 8.31134 4.21598 7.42587 4.83873 6.71166C4.44173 5.53428 4.8757 4.52621 4.93408 4.37636C6.06476 4.27517 7.24019 5.18593 7.33165 5.25794C7.97386 5.08474 8.70753 4.99327 9.52878 4.99327C10.3539 4.99327 11.0895 5.08863 11.7376 5.26378C11.9575 5.09641 13.0473 4.31409 14.0982 4.40945C14.1546 4.55929 14.5789 5.54401 14.2052 6.70582C14.8357 7.42198 15.1568 8.31523 15.1568 9.28048C15.1568 11.2694 14.0087 12.9411 11.2647 13.4237C11.4997 13.6548 11.6863 13.9305 11.8136 14.2345C11.9409 14.5386 12.0064 14.865 12.0061 15.1946V17.384C12.0217 17.5591 12.0061 17.7323 12.298 17.7323C15.7446 16.5705 18.2258 13.3147 18.2258 9.47898C18.2258 4.66828 14.3259 0.774171 9.5171 0.774171Z" fill="white"/>
</svg>
