<svg width="2095" height="2095" viewBox="0 0 2095 2095" fill="none" xmlns="http://www.w3.org/2000/svg">
<circle cx="1136" cy="1048" r="953" fill="#555555"/>
<path d="M1809.5 654.276V1353.64C1809.5 1366.57 1797.42 1376.11 1784.84 1373.09L695.342 1112.17C686.345 1110.02 680 1101.98 680 1092.72V393.355C680 380.426 692.084 370.894 704.658 373.905L1794.16 634.826C1803.16 636.98 1809.5 645.024 1809.5 654.276Z" fill="#87DBE0"/>
<path d="M1776.5 679.776V1379.14C1776.5 1392.07 1764.42 1401.61 1751.84 1398.59L662.342 1137.67C653.345 1135.52 647 1127.48 647 1118.22V418.855C647 405.926 659.084 396.394 671.658 399.405L1761.16 660.326C1770.16 662.48 1776.5 670.524 1776.5 679.776Z" fill="#9AF8FE"/>
<path d="M1358.52 836.409L704.52 684.688C691.982 681.78 680 691.3 680 704.171V875.609C680 884.913 686.416 892.989 695.48 895.091L1349.48 1046.81C1362.02 1049.72 1374 1040.2 1374 1027.33V855.891C1374 846.587 1367.58 838.511 1358.52 836.409Z" fill="white"/>
<path d="M687.317 797.201C690.29 798.548 697.574 801.364 702.931 801.846C709.628 802.448 714.619 793.565 722.853 792.468C729.441 791.591 734.524 808.348 736.243 816.836L747.634 741.402L749.135 872.813C748.075 848.298 757.343 799.083 762.89 798.344C771.137 803.97 779.593 817.787 801.275 821.624C804.248 822.972 811.533 825.787 816.89 826.269C823.586 826.872 828.577 817.988 836.811 816.892C843.399 816.014 848.482 832.771 850.201 841.259L861.592 765.825L863.093 897.237C862.033 872.721 871.301 823.506 876.848 822.767C885.095 828.393 893.551 842.211 915.233 846.048C918.206 847.395 925.491 850.211 930.848 850.693C937.544 851.295 942.536 842.412 950.77 841.315C957.357 840.438 962.441 857.195 964.159 865.683L975.55 790.248L977.051 921.66C975.991 897.145 985.259 847.93 990.806 847.191C999.054 852.817 1007.51 866.634 1029.19 870.471C1032.16 871.819 1039.45 874.634 1044.81 875.116C1051.5 875.719 1056.49 866.835 1064.73 865.739C1071.31 864.861 1076.4 881.618 1078.12 890.106L1089.51 814.672L1091.01 946.084C1089.95 921.568 1099.22 872.353 1104.76 871.614C1113.01 877.24 1121.47 891.058 1143.15 894.895C1146.12 896.242 1153.41 899.058 1158.76 899.54C1165.46 900.142 1170.45 891.259 1178.69 890.162C1185.27 889.285 1190.36 906.042 1192.08 914.53L1203.47 839.095L1204.97 970.507C1203.91 945.991 1213.18 896.776 1218.72 896.038C1226.97 901.664 1235.43 915.481 1257.11 919.318C1260.08 920.665 1267.37 923.481 1272.72 923.963C1279.31 923.086 1284.39 939.842 1286.11 948.331L1297.5 872.896L1299 1004.31C1297.94 979.792 1307.21 930.577 1312.76 929.839C1321.01 935.465 1329.46 949.282 1351.14 953.119C1354.12 954.466 1361.4 957.282 1366.76 957.764" stroke="#40989D" stroke-width="4"/>
<path d="M999 535.989V708.635C999 721.568 986.911 731.1 974.335 728.083L695.335 661.157C686.341 659 680 650.958 680 641.709V473.017C680 460.195 691.896 450.685 704.403 453.508L983.403 516.48C992.523 518.538 999 526.64 999 535.989Z" fill="white"/>
<path d="M854 551.984V579.511C854 585.916 848.063 590.67 841.814 589.27L698.814 557.229C694.246 556.206 691 552.152 691 547.471V519.524C691 513.108 696.957 508.352 703.214 509.772L846.214 542.233C850.768 543.266 854 547.314 854 551.984Z" fill="#E9F3A9"/>
<path d="M806 501.991V506.763C806 509.963 803.036 512.339 799.912 511.643L699.912 489.351C697.626 488.841 696 486.813 696 484.471V479.264C696 476.055 698.979 473.677 702.108 474.388L802.108 497.115C804.385 497.633 806 499.657 806 501.991Z" fill="#E6E6E6"/>
<path d="M894 624.949V652.449C894 658.874 888.028 663.632 881.766 662.196L698.766 620.259C694.222 619.217 691 615.173 691 610.511V582.58C691 576.146 696.988 571.386 703.256 572.838L886.256 615.207C890.79 616.257 894 620.295 894 624.949Z" fill="#E9F3A9"/>
<path d="M1374 622.989V795.635C1374 808.568 1361.91 818.1 1349.33 815.083L1070.33 748.157C1061.34 746 1055 737.958 1055 728.709V560.017C1055 547.195 1066.9 537.685 1079.4 540.508L1358.4 603.48C1367.52 605.538 1374 613.64 1374 622.989Z" fill="white"/>
<path d="M1079.5 672.982V742.635C1079.5 747.25 1082.66 751.266 1087.14 752.353L1116.64 759.505C1122.94 761.03 1129 756.262 1129 749.786V678.346C1129 673.513 1125.54 669.372 1120.79 668.507L1091.29 663.143C1085.15 662.027 1079.5 666.743 1079.5 672.982Z" fill="#ED9F9F"/>
<path d="M1213 705.222V774.635C1213 779.25 1216.16 783.266 1220.64 784.353L1250.14 791.505C1256.44 793.03 1262.5 788.262 1262.5 781.786V711.182C1262.5 706.422 1259.15 702.322 1254.48 701.38L1224.98 695.42C1218.79 694.169 1213 698.904 1213 705.222Z" fill="#ED9F9F"/>
<path d="M1282 621.344V790.635C1282 795.25 1285.16 799.266 1289.64 800.353L1319.14 807.505C1325.44 809.03 1331.5 804.262 1331.5 797.786V627.601C1331.5 622.878 1328.2 618.799 1323.58 617.819L1294.08 611.561C1287.86 610.242 1282 614.986 1282 621.344Z" fill="#E03A3A"/>
<path d="M1147 648.982V758.635C1147 763.25 1150.16 767.266 1154.64 768.353L1184.14 775.505C1190.44 777.03 1196.5 772.262 1196.5 765.786V654.346C1196.5 649.513 1193.04 645.372 1188.29 644.507L1158.79 639.143C1152.65 638.027 1147 642.743 1147 648.982Z" fill="#E96E6E"/>
<path d="M1374 1087.99V1260.64C1374 1273.57 1361.91 1283.1 1349.33 1280.08L1070.33 1213.16C1061.34 1211 1055 1202.96 1055 1193.71V1025.02C1055 1012.2 1066.9 1002.68 1079.4 1005.51L1358.4 1068.48C1367.52 1070.54 1374 1078.64 1374 1087.99Z" fill="white"/>
<path d="M997 997.989V1170.64C997 1183.57 984.911 1193.1 972.335 1190.08L693.335 1123.16C684.341 1121 678 1112.96 678 1103.71V935.017C678 922.195 689.896 912.685 702.403 915.508L981.403 978.48C990.523 980.538 997 988.64 997 997.989Z" fill="white"/>
<path d="M1181 1054.99V1059.76C1181 1062.96 1178.04 1065.34 1174.91 1064.64L1074.91 1042.35C1072.63 1041.84 1071 1039.81 1071 1037.47V1032.26C1071 1029.06 1073.98 1026.68 1077.11 1027.39L1177.11 1050.12C1179.38 1050.63 1181 1052.66 1181 1054.99Z" fill="#E6E6E6"/>
<path d="M1143 1070.52V1075.33C1143 1078.5 1140.09 1080.87 1136.98 1080.22L1074.98 1067.31C1072.66 1066.82 1071 1064.78 1071 1062.41V1057.19C1071 1054 1073.94 1051.63 1077.05 1052.3L1139.05 1065.63C1141.35 1066.13 1143 1068.16 1143 1070.52Z" fill="#E6E6E6"/>
<path d="M1146 1096.55V1101.38C1146 1104.53 1143.11 1106.9 1140.02 1106.28L1075.02 1093.28C1072.68 1092.82 1071 1090.76 1071 1088.38V1083.14C1071 1079.97 1073.91 1077.6 1077.01 1078.24L1142.01 1091.66C1144.33 1092.13 1146 1094.18 1146 1096.55Z" fill="#E6E6E6"/>
<path d="M1729 706.989V1339.64C1729 1352.57 1716.91 1362.1 1704.33 1359.08L1425.33 1292.16C1416.34 1290 1410 1281.96 1410 1272.71V644.017C1410 631.195 1421.9 621.685 1434.4 624.508L1713.4 687.48C1722.52 689.538 1729 697.64 1729 706.989Z" fill="white"/>
<path d="M1578.44 808.355C1599.5 809.936 1618 792.243 1619.76 768.837C1621.51 745.431 1605.86 725.175 1584.8 723.594C1563.73 722.013 1545.24 739.706 1543.48 763.112C1541.72 786.519 1557.37 806.775 1578.44 808.355Z" fill="#754F3A" fill-opacity="0.88"/>
<path d="M1521.28 934.377C1525.39 915.801 1528.35 888.719 1524.92 875.839C1522 864.777 1520.1 875.28 1520.1 875.28C1520.1 875.28 1508.42 886.638 1503.29 954.946C1502.13 970.402 1506.09 979.145 1501.95 986.107C1497.82 993.068 1488.52 993.625 1481.89 988.865C1475.27 984.104 1473.17 961.933 1473.79 950.449C1473.16 903.26 1503.15 810.523 1529.5 812.5C1555.85 814.477 1578.75 820.734 1622.27 824C1665.8 827.266 1662.79 953.074 1661.69 964.523C1660.59 975.972 1659.16 998.178 1651.9 1001.9C1644.64 1005.61 1635.52 1003.68 1632.48 996.175C1629.43 988.675 1633.66 980.471 1634.82 965.014C1639.94 896.706 1630.09 883.732 1630.09 883.732C1630.09 883.732 1626.81 872.615 1622.27 883.118C1616.96 895.342 1617.28 919.745 1618.57 938.726L1620.44 961.182C1620.47 961.227 1620.49 961.28 1620.5 961.336C1620.51 961.392 1620.52 961.45 1620.5 961.506L1639.37 1142.25C1639.69 1145.52 1639.43 1148.83 1638.59 1152C1637.76 1155.17 1636.36 1158.13 1634.49 1160.71C1632.62 1163.29 1630.31 1165.44 1627.7 1167.04C1625.09 1168.64 1622.22 1169.64 1619.27 1170C1616.32 1170.36 1613.35 1170.07 1610.52 1169.14C1607.69 1168.21 1605.07 1166.66 1602.8 1164.58C1600.53 1162.5 1598.67 1159.94 1597.32 1157.04C1595.96 1154.13 1595.15 1150.95 1594.92 1147.68L1584.72 1019.94C1584.72 1019.94 1580.79 989.996 1569.17 989.124C1557.74 988.266 1549.26 1017.28 1549.26 1017.28L1531.41 1137.98C1530.7 1141.15 1529.43 1144.15 1527.67 1146.79C1525.92 1149.44 1523.71 1151.68 1521.18 1153.38C1518.65 1155.08 1515.85 1156.22 1512.94 1156.71C1510.03 1157.21 1507.07 1157.07 1504.23 1156.28C1498.49 1154.68 1493.59 1150.6 1490.6 1144.95C1487.62 1139.3 1486.79 1132.53 1488.3 1126.12L1515.97 956.613C1516.01 956.575 1516.04 956.527 1516.06 956.473C1516.08 956.419 1516.09 956.361 1516.09 956.303L1521.28 934.377Z" fill="#754F3A" fill-opacity="0.88"/>
<path d="M1583 1213.98V1241.51C1583 1247.92 1577.06 1252.67 1570.81 1251.27L1427.81 1219.23C1423.25 1218.21 1420 1214.15 1420 1209.47V1181.52C1420 1175.11 1425.96 1170.35 1432.21 1171.77L1575.21 1204.23C1579.77 1205.27 1583 1209.31 1583 1213.98Z" fill="#DC93E2"/>
<path d="M1623 1286.95V1314.45C1623 1320.87 1617.03 1325.63 1610.77 1324.2L1427.77 1282.26C1423.22 1281.22 1420 1277.17 1420 1272.51V1244.58C1420 1238.15 1425.99 1233.39 1432.26 1234.84L1615.26 1277.21C1619.79 1278.26 1623 1282.3 1623 1286.95Z" fill="#DC93E2"/>
<path d="M1548 686.991V691.763C1548 694.963 1545.04 697.339 1541.91 696.643L1441.91 674.351C1439.63 673.841 1438 671.813 1438 669.471V664.264C1438 661.055 1440.98 658.677 1444.11 659.388L1544.11 682.115C1546.38 682.633 1548 684.657 1548 686.991Z" fill="#E6E6E6"/>
<g clip-path="url(#clip0)">
<path d="M744.985 958.202C745.186 960.801 743.357 963.109 740.902 963.355C739.022 963.543 737.322 962.469 736.537 960.79L734.309 960.986L732.626 961.798C732.242 961.983 731.983 962.35 731.924 962.773C731.765 963.911 731.477 965.008 731.076 966.05C730.94 966.403 730.964 966.796 731.149 967.126L731.748 968.197L733.414 969.315C734.293 968.979 735.315 969.06 736.156 969.624C737.582 970.581 737.924 972.55 736.864 973.936C735.951 975.13 734.254 975.458 732.962 974.691C732.14 974.203 731.642 973.392 731.521 972.526L729.674 971.288L728.512 971.146C728.112 971.097 727.715 971.235 727.425 971.513C726.444 972.447 725.336 973.249 724.132 973.892C723.727 974.107 723.467 974.522 723.438 974.979L723.291 977.333L724.022 980.233C725.266 980.581 726.294 981.567 726.632 982.909C727.143 984.937 725.883 986.995 723.829 987.452C721.975 987.865 720.074 986.785 719.485 984.979C719.026 983.569 719.447 982.112 720.417 981.159L719.682 978.242L718.548 976.419C718.244 975.93 717.706 975.641 717.13 975.642C717.126 975.642 717.124 975.642 717.12 975.642C716.127 975.642 715.156 975.543 714.216 975.358C713.656 975.247 713.079 975.424 712.686 975.838L711.188 977.419L709.51 980.899C709.903 981.697 709.938 982.661 709.522 983.525C708.776 985.073 706.871 985.688 705.349 984.832C704.046 984.098 703.482 982.477 704.049 981.092C704.436 980.148 705.239 979.517 706.147 979.306L707.835 975.803L708.166 973.452C708.226 973.019 708.061 972.582 707.72 972.307C706.377 971.218 705.226 969.902 704.326 968.417C704.103 968.048 703.701 967.825 703.269 967.821L700.922 967.799L698.352 968.607C698.172 970.205 697.078 971.625 695.446 972.138C693.253 972.828 690.917 971.623 690.205 969.443C689.493 967.265 690.695 964.883 692.871 964.163C694.394 963.659 695.995 964.078 697.078 965.108L699.805 964.249L701.797 962.829C702.094 962.619 702.251 962.268 702.222 961.907C702.189 961.506 702.172 961.102 702.172 960.693C702.172 958.473 702.66 956.365 703.532 954.47C703.659 954.192 703.655 953.872 703.521 953.597L702.931 952.39L701.33 951.182C700.433 951.469 699.417 951.331 698.609 950.722C697.238 949.687 697.006 947.701 698.141 946.377C699.119 945.236 700.831 945.002 702.079 945.84C702.873 946.373 703.325 947.209 703.398 948.081L705.173 949.42L706.962 949.739C708.264 948.53 709.781 947.551 711.449 946.864L711.869 944.312L711.339 941.677C709.77 941.273 708.496 940.071 708.154 938.468C707.67 936.203 709.226 933.998 711.63 933.543C714.033 933.088 716.374 934.553 716.857 936.817C717.219 938.512 716.439 940.173 715.016 941.092L715.517 943.578L716.746 945.539C716.827 945.667 716.967 945.745 717.118 945.745H717.12C719.935 945.745 722.571 946.528 724.822 947.888C724.946 947.961 725.098 947.972 725.228 947.91L727.153 947.018L729.401 944.587C729.266 943.715 729.514 942.791 730.16 942.093C731.327 940.832 733.325 940.8 734.53 942.061C735.587 943.168 735.628 944.933 734.624 946.089C733.975 946.837 733.043 947.182 732.133 947.114L729.885 949.545L729.155 951.508C729.104 951.645 729.127 951.797 729.212 951.915C730.099 953.132 730.806 954.487 731.294 955.942C731.429 956.342 731.747 956.653 732.153 956.767L733.981 957.279L736.355 957.069C736.937 955.39 738.391 954.12 740.177 953.941C742.632 953.695 744.785 955.603 744.985 958.202V958.202Z" fill="#EB5569"/>
<path d="M717.12 971.762C723.234 971.762 728.189 966.807 728.189 960.693C728.189 954.58 723.234 949.624 717.12 949.624C711.007 949.624 706.051 954.58 706.051 960.693C706.051 966.807 711.007 971.762 717.12 971.762Z" fill="#F58A97"/>
<path d="M709.425 960.693C709.425 955.153 713.494 950.564 718.807 949.752C718.257 949.668 717.694 949.624 717.12 949.624C711.007 949.624 706.051 954.58 706.051 960.693C706.051 966.807 711.007 971.762 717.12 971.762C717.694 971.762 718.257 971.719 718.807 971.635C713.495 970.822 709.425 966.233 709.425 960.693Z" fill="#F07281"/>
<path d="M698.496 940.57C700.237 940.57 701.648 939.158 701.648 937.418C701.648 935.677 700.237 934.265 698.496 934.265C696.755 934.265 695.344 935.677 695.344 937.418C695.344 939.158 696.755 940.57 698.496 940.57Z" fill="#EB5569"/>
<path d="M697.634 981.05C698.784 981.05 699.716 980.118 699.716 978.968C699.716 977.818 698.784 976.886 697.634 976.886C696.484 976.886 695.552 977.818 695.552 978.968C695.552 980.118 696.484 981.05 697.634 981.05Z" fill="#EB5569"/>
<path d="M735.862 985.455C737.555 985.455 738.928 984.082 738.928 982.388C738.928 980.694 737.555 979.321 735.862 979.321C734.168 979.321 732.795 980.694 732.795 982.388C732.795 984.082 734.168 985.455 735.862 985.455Z" fill="#EB5569"/>
<path d="M713.722 960.5C715.301 960.5 716.581 959.22 716.581 957.641C716.581 956.062 715.301 954.781 713.722 954.781C712.143 954.781 710.863 956.062 710.863 957.641C710.863 959.22 712.143 960.5 713.722 960.5Z" fill="#EB5569"/>
<path d="M716.017 968.467C717.092 968.467 717.963 967.596 717.963 966.521C717.963 965.446 717.092 964.575 716.017 964.575C714.943 964.575 714.071 965.446 714.071 966.521C714.071 967.596 714.943 968.467 716.017 968.467Z" fill="#EB5569"/>
<path d="M722.128 962.327C723.031 962.327 723.762 961.596 723.762 960.693C723.762 959.791 723.031 959.059 722.128 959.059C721.226 959.059 720.494 959.791 720.494 960.693C720.494 961.596 721.226 962.327 722.128 962.327Z" fill="#EB5569"/>
</g>
<path d="M980 1009.43V1031.81C980 1044.74 967.911 1054.27 955.335 1051.26L900.335 1038.06C891.341 1035.91 885 1027.86 885 1018.61V997.017C885 984.195 896.896 974.685 909.403 977.508L964.403 989.922C973.523 991.98 980 1000.08 980 1009.43Z" fill="white"/>
<path d="M892.296 1018.36V1030.38C892.296 1033.78 894.624 1036.74 897.931 1037.54C902.57 1038.67 907.038 1035.15 907.038 1030.38V1018.36C907.038 1014.79 904.49 1011.74 900.986 1011.1C896.461 1010.28 892.296 1013.76 892.296 1018.36Z" fill="#E7DDDD"/>
<path d="M932.053 1048.06V1059.91C932.053 1063.31 934.381 1066.27 937.687 1067.07C942.326 1068.2 946.795 1064.68 946.795 1059.91V1048.06C946.795 1044.55 944.322 1041.53 940.883 1040.84C936.319 1039.91 932.053 1043.4 932.053 1048.06Z" fill="#E7DDDD"/>
<path d="M952.602 1003.14V1044.67C952.602 1048.08 954.93 1051.04 958.236 1051.84C962.875 1052.96 967.343 1049.45 967.343 1044.67V1003.14C967.343 999.654 964.908 996.648 961.502 995.926C956.918 994.953 952.602 998.449 952.602 1003.14Z" fill="#C7A6A6"/>
<path d="M912.398 1011.21V1035.14C912.398 1038.55 914.726 1041.51 918.032 1042.31C922.671 1043.43 927.139 1039.92 927.139 1035.14V1011.21C927.139 1007.65 924.592 1004.59 921.087 1003.96C916.563 1003.13 912.398 1006.61 912.398 1011.21Z" fill="#DAD1D1"/>
<g clip-path="url(#clip1)">
<path d="M801.37 1097.67V1109.21C801.35 1113.51 797.877 1116.98 793.586 1117C789.289 1116.99 785.806 1113.51 785.801 1109.21V1083.64C786.001 1083.97 786.224 1084.28 786.446 1084.59C786.624 1084.86 786.802 1085.13 787.002 1085.37C787.045 1085.42 787.082 1085.47 787.114 1085.53C787.314 1085.79 787.514 1086.06 787.737 1086.33C787.97 1086.66 788.222 1086.97 788.493 1087.26C788.631 1087.46 788.787 1087.63 788.96 1087.8C789.021 1087.88 789.088 1087.95 789.16 1088.02C789.271 1088.18 789.404 1088.31 789.538 1088.46V1088.49L789.56 1088.51L789.738 1088.69C789.783 1088.75 789.849 1088.8 789.894 1088.86C789.916 1088.89 789.938 1088.89 789.938 1088.91C790.036 1089.03 790.14 1089.15 790.25 1089.26C790.672 1089.73 791.117 1090.18 791.584 1090.6C791.648 1090.68 791.723 1090.75 791.807 1090.8L791.985 1090.98C791.985 1091 792.007 1091.02 792.029 1091C792.14 1091.13 792.274 1091.24 792.385 1091.36C792.72 1091.69 793.076 1092 793.453 1092.29C793.517 1092.34 793.577 1092.39 793.63 1092.45C793.657 1092.49 793.696 1092.52 793.742 1092.53C794.32 1093 794.898 1093.47 795.499 1093.94L795.521 1093.96C796.121 1094.4 796.722 1094.82 797.322 1095.23C797.344 1095.23 797.344 1095.23 797.344 1095.25C797.945 1095.65 798.568 1096.03 799.168 1096.4C799.207 1096.44 799.252 1096.47 799.302 1096.49C799.635 1096.69 799.969 1096.89 800.325 1097.09H800.347C800.488 1097.19 800.637 1097.27 800.792 1097.34C800.826 1097.37 800.863 1097.39 800.903 1097.4C801.056 1097.48 801.205 1097.56 801.348 1097.65C801.348 1097.66 801.35 1097.66 801.355 1097.66C801.359 1097.67 801.365 1097.67 801.37 1097.67Z" fill="#84B5CB"/>
<path d="M852.148 1046.27C852.42 1045.41 852.548 1044.51 852.526 1043.6C852.526 1036.93 845.854 1028.03 839.181 1028.03L840.205 1014.69C840.967 1012.55 841.372 1010.29 841.406 1008.02C841.406 1002.81 837.336 997.63 830.285 995.584V992.448C830.285 989.992 828.294 988 825.837 988C823.38 988 821.389 989.991 821.389 992.448V994.784C819.442 994.931 817.53 995.374 815.717 996.096L813.782 991.247C813.054 989.42 811.021 988.485 809.16 989.119C807.298 989.753 806.26 991.735 806.799 993.627L808.911 1001.01C802.573 1008.4 801.438 1020.67 801.372 1029.61V1034.42C799.948 1033.88 798.458 1033.24 796.923 1032.48C796.74 1032.39 796.546 1032.31 796.345 1032.26C796.323 1032.26 796.323 1032.28 796.3 1032.28C793.987 1031.64 789.739 1032.79 785.803 1036.69V1036.64C781.132 1041.27 776.906 1049.72 776.906 1063.62C776.906 1090.31 781.354 1085.86 781.354 1085.86C781.667 1085.86 781.979 1085.84 782.289 1085.8C783.24 1088.16 784.416 1090.44 785.803 1092.58C786.353 1093.42 786.947 1094.24 787.582 1095.03C787.614 1095.08 787.651 1095.13 787.693 1095.18C787.693 1095.2 787.715 1095.23 787.738 1095.25C787.76 1095.27 787.76 1095.29 787.805 1095.31C787.983 1095.56 788.183 1095.8 788.383 1096.05C788.427 1096.09 788.465 1096.15 788.494 1096.2L788.961 1096.74C789.023 1096.82 789.089 1096.89 789.161 1096.96C789.273 1097.12 789.406 1097.25 789.54 1097.4V1097.43L789.562 1097.45C789.629 1097.54 789.717 1097.6 789.784 1097.69C789.832 1097.72 789.87 1097.76 789.896 1097.81H789.918C789.918 1097.83 789.94 1097.83 789.94 1097.85C790.042 1097.94 790.138 1098.04 790.229 1098.14L790.251 1098.16V1098.18L790.563 1098.49C790.896 1098.85 791.252 1099.21 791.586 1099.54C791.719 1099.67 791.853 1099.78 791.986 1099.92C792.12 1100.05 792.253 1100.16 792.387 1100.3C792.722 1100.63 793.078 1100.94 793.454 1101.23C793.519 1101.28 793.578 1101.33 793.632 1101.39C793.658 1101.43 793.697 1101.46 793.743 1101.48C794.321 1101.94 794.9 1102.41 795.5 1102.88L795.522 1102.9C796.123 1103.34 796.724 1103.77 797.324 1104.17C797.346 1104.17 797.346 1104.17 797.346 1104.19C797.946 1104.59 798.569 1104.97 799.17 1105.34C799.209 1105.38 799.254 1105.41 799.303 1105.43C799.637 1105.63 799.971 1105.83 800.327 1106.03H800.349C800.49 1106.13 800.638 1106.21 800.794 1106.28C800.828 1106.31 800.865 1106.33 800.905 1106.35C801.058 1106.42 801.206 1106.5 801.35 1106.59C801.35 1106.6 801.352 1106.6 801.356 1106.61C801.361 1106.61 801.366 1106.61 801.372 1106.61V1109.21C801.364 1112.97 804.044 1116.19 807.738 1116.87C811.432 1117.55 815.082 1115.49 816.407 1111.97C818.048 1112.31 819.715 1112.51 821.39 1112.55C825.972 1112.54 830.544 1112.96 835.046 1113.82C836.602 1114.13 838.026 1114.44 839.405 1114.77C843.676 1116.03 848.081 1116.78 852.527 1117C859.2 1117 868.096 1112.55 868.096 1092.53C868.095 1080.86 862.045 1060.91 852.148 1046.27ZM808.311 1056.28V1056.26H808.333L808.311 1056.28ZM841.339 1050.1C841.189 1050.08 841.04 1050.05 840.894 1050.01C841.05 1050.03 841.183 1050.05 841.339 1050.08V1050.1Z" fill="#D75E72"/>
<path d="M841.405 1008.02C841.371 1010.29 840.966 1012.55 840.203 1014.69C839.781 1014.69 839.358 1014.69 838.936 1014.71H838.313C838.09 1014.71 837.868 1014.71 837.646 1014.73C837.29 1014.73 836.912 1014.76 836.534 1014.78C836.178 1014.8 835.844 1014.82 835.488 1014.87C835.177 1014.89 834.865 1014.91 834.554 1014.96C833.058 1015.12 831.583 1015.43 830.15 1015.89C829.795 1015.99 829.446 1016.11 829.105 1016.25C829.021 1016.27 828.939 1016.3 828.86 1016.34C828.438 1016.49 828.059 1016.67 827.637 1016.87C827.526 1016.91 827.392 1016.98 827.259 1017.05C826.961 1017.19 826.671 1017.34 826.391 1017.51C826.092 1017.68 825.803 1017.85 825.524 1018.05C825.164 1018.25 824.822 1018.48 824.501 1018.74C823.383 1019.51 822.34 1020.39 821.387 1021.36C821.053 1021.7 820.697 1022.05 820.386 1022.41C820.329 1022.45 820.276 1022.51 820.23 1022.56C819.696 1023.14 819.185 1023.72 818.718 1024.3C818.362 1024.7 818.051 1025.1 817.739 1025.5C817.45 1025.85 817.183 1026.21 816.939 1026.57C816.672 1026.92 816.405 1027.28 816.16 1027.63C815.671 1028.35 815.226 1029.06 814.803 1029.75C814.581 1030.08 814.381 1030.44 814.203 1030.77C814.203 1030.79 814.181 1030.81 814.158 1030.84C814.108 1030.95 814.048 1031.06 813.98 1031.17C813.535 1032.06 813.135 1032.91 812.801 1033.71C812.682 1033.98 812.578 1034.26 812.49 1034.55C812.296 1035.09 812.147 1035.65 812.045 1036.22C811.988 1036.45 811.951 1036.69 811.934 1036.93L812.49 1041.38C812.29 1041.29 807.908 1036.78 807.686 1036.69C807.597 1036.66 807.486 1036.62 807.397 1036.6L806.863 1036.4C805.328 1035.86 803.616 1035.29 801.792 1034.6C801.758 1034.59 801.727 1034.58 801.703 1034.55C801.681 1034.55 801.636 1034.53 801.614 1034.53C801.53 1034.5 801.449 1034.46 801.369 1034.42V1029.61C801.436 1020.67 802.57 1008.4 808.909 1001.01L806.796 993.627C806.258 991.736 807.296 989.754 809.157 989.119C811.019 988.485 813.051 989.421 813.78 991.247L815.715 996.096C817.528 995.374 819.44 994.931 821.386 994.784V992.448C821.387 989.992 823.379 988 825.836 988C828.292 988 830.284 989.991 830.284 992.448V995.584C837.335 997.63 841.405 1002.81 841.405 1008.02Z" fill="#CC4B4C"/>
<path d="M785.802 1036.64V1005.79C785.802 1000.46 782.599 995.117 780.042 991.692C779.508 990.999 779.416 990.062 779.803 989.278C780.191 988.494 780.991 987.998 781.865 988H790.584C793.514 988.006 796.219 989.575 797.679 992.115C800.096 996.268 801.37 1000.99 801.371 1005.79V1036.93L785.802 1036.64Z" fill="#84B5CB"/>
<path d="M854.95 1021.92C854.933 1023.49 854.246 1024.98 853.062 1026.02C851.877 1027.06 850.307 1027.54 848.745 1027.34C845.553 1026.71 842.25 1026.95 839.181 1028.03L839.226 1028.26L839.293 1028.61L839.359 1028.97L839.582 1030.46C839.683 1031.28 839.735 1032.1 839.738 1032.93V1033.31C839.741 1033.4 839.734 1033.5 839.715 1033.59V1033.84C839.715 1033.97 839.693 1034.08 839.693 1034.22C839.689 1034.37 839.675 1034.53 839.649 1034.68C839.626 1034.97 839.604 1035.28 839.56 1035.6C839.537 1035.75 839.515 1035.91 839.493 1036.04V1036.06C839.404 1036.51 839.315 1036.93 839.204 1037.38L839.137 1037.51C839.027 1037.9 838.893 1038.29 838.737 1038.67C838.691 1038.8 838.631 1038.92 838.559 1039.04C838.47 1039.2 838.403 1039.36 838.314 1039.51C838.225 1039.67 838.158 1039.8 838.069 1039.93C838.017 1040.06 837.941 1040.18 837.847 1040.29L837.713 1040.49C837.669 1040.53 837.647 1040.56 837.647 1040.58L837.58 1040.65C837.39 1040.9 837.182 1041.15 836.957 1041.38C836.789 1041.55 836.633 1041.72 836.49 1041.91C836.433 1041.95 836.387 1042.01 836.356 1042.07L836.29 1042.14C836.121 1042.34 835.972 1042.55 835.845 1042.78C835.839 1042.81 835.824 1042.84 835.8 1042.87C832.504 1043.39 829.172 1043.63 825.836 1043.6C825.413 1043.6 824.946 1043.58 824.479 1043.54C822.059 1043.31 819.68 1042.75 817.406 1041.89C817.095 1041.78 816.806 1041.67 816.517 1041.53C816.205 1041.4 815.894 1041.27 815.605 1041.13C815.468 1041.08 815.334 1041.03 815.205 1040.96C814.64 1040.67 814.091 1040.36 813.559 1040.02C813.537 1040 813.537 1040 813.514 1040V1039.98H813.492V1039.96C813.117 1039.5 812.683 1039.1 812.202 1038.75L812.18 1038.73C811.937 1038.17 811.852 1037.54 811.935 1036.93H811.957C811.98 1036.71 812.002 1036.46 812.046 1036.22C812.148 1035.65 812.297 1035.09 812.491 1034.55C812.579 1034.26 812.683 1033.98 812.803 1033.71C813.136 1032.91 813.537 1032.06 813.982 1031.17C814.049 1031.06 814.109 1030.95 814.159 1030.84C814.182 1030.82 814.204 1030.79 814.204 1030.77C814.382 1030.44 814.582 1030.08 814.804 1029.75C815.227 1029.06 815.672 1028.35 816.161 1027.63C816.406 1027.28 816.673 1026.92 816.94 1026.57C817.184 1026.21 817.451 1025.86 817.74 1025.5C818.052 1025.1 818.363 1024.7 818.719 1024.3C819.186 1023.72 819.698 1023.14 820.231 1022.56C820.278 1022.51 820.33 1022.45 820.387 1022.41C820.699 1022.05 821.054 1021.7 821.388 1021.36C822.341 1020.39 823.384 1019.51 824.502 1018.74C824.829 1018.49 825.17 1018.26 825.525 1018.05C825.804 1017.85 826.094 1017.68 826.392 1017.51C826.672 1017.34 826.962 1017.19 827.26 1017.05C827.393 1016.98 827.527 1016.91 827.638 1016.87C828.061 1016.67 828.439 1016.49 828.861 1016.34C828.94 1016.3 829.022 1016.27 829.106 1016.25C829.447 1016.11 829.796 1015.99 830.151 1015.89C831.584 1015.43 833.059 1015.12 834.555 1014.96C834.867 1014.91 835.178 1014.89 835.489 1014.87C835.845 1014.82 836.179 1014.8 836.535 1014.78C836.913 1014.76 837.291 1014.73 837.647 1014.73C837.869 1014.71 838.092 1014.71 838.314 1014.71H838.937C839.359 1014.69 839.782 1014.69 840.205 1014.69H841.406C844.786 1014.86 848.118 1015.55 851.281 1016.76C853.467 1017.54 854.933 1019.6 854.95 1021.92Z" fill="#84B5CB"/>
<path d="M816.406 1111.97C815.081 1115.49 811.431 1117.55 807.737 1116.87C804.043 1116.19 801.363 1112.97 801.371 1109.21V1106.61C802.038 1106.99 802.727 1107.35 803.417 1107.66H803.439C804.769 1108.32 806.135 1108.91 807.531 1109.42L807.554 1109.44C808.199 1109.68 808.843 1109.93 809.488 1110.13C810.111 1110.35 810.756 1110.55 811.357 1110.73C811.913 1110.91 812.447 1111.06 812.98 1111.19C813.136 1111.24 813.292 1111.26 813.425 1111.31C813.915 1111.44 814.382 1111.55 814.849 1111.64C815.383 1111.77 815.917 1111.88 816.406 1111.97Z" fill="#CC4B4C"/>
<path d="M861.422 1101.43C861.418 1102.66 860.425 1103.65 859.198 1103.65C857.989 1103.56 856.845 1103.07 855.951 1102.25C855.539 1103.36 854.911 1104.37 854.105 1105.23C853.228 1106.09 851.824 1106.09 850.946 1105.23C850.079 1104.36 850.079 1102.95 850.946 1102.08C851.916 1100.76 852.458 1099.17 852.503 1097.54C851.184 1095.54 849.563 1093.77 847.699 1092.27C846.731 1096.74 845.168 1101.06 843.051 1105.12C841.417 1108.17 840.191 1111.41 839.403 1114.78C838.024 1114.44 836.601 1114.13 835.044 1113.82C835.914 1110.13 837.252 1106.56 839.025 1103.21C841.293 1098.43 843.629 1093.47 843.629 1088.09C843.335 1085.27 842.29 1082.59 840.604 1080.32C840.092 1079.46 839.536 1078.54 839.025 1077.59C837.607 1079.85 835.175 1081.28 832.508 1081.41C831.28 1081.41 830.284 1080.42 830.284 1079.19C830.284 1077.96 831.279 1076.96 832.508 1076.96C834.865 1076.96 836.689 1072.96 837.067 1071.85C836.996 1071.33 836.959 1070.81 836.956 1070.29C836.956 1064.04 840.493 1052.72 841.338 1050.1C841.427 1049.81 841.494 1049.63 841.516 1049.56C841.857 1048.55 842.872 1047.92 843.933 1048.07C844.994 1048.21 845.8 1049.09 845.853 1050.16C845.861 1050.44 845.824 1050.72 845.742 1050.99C845.72 1051.05 844.607 1054.41 843.495 1058.55C843.517 1058.62 843.562 1058.66 843.584 1058.73C843.606 1058.84 845.675 1068.51 853.059 1070.36C858.308 1071.67 860.955 1077.65 861.244 1078.32C861.479 1078.86 861.486 1079.48 861.265 1080.03C861.043 1080.57 860.611 1081.01 860.065 1081.24C859.79 1081.35 859.496 1081.41 859.198 1081.41C858.305 1081.41 857.499 1080.88 857.152 1080.06C856.596 1078.79 854.616 1075.34 851.992 1074.67C847.57 1073.42 843.87 1070.38 841.783 1066.29C841.562 1067.61 841.436 1068.95 841.405 1070.29C841.699 1073.1 842.744 1075.79 844.43 1078.05C846.266 1080.69 847.49 1083.71 848.011 1086.88C851.52 1089.28 854.49 1092.37 856.729 1095.98C858.086 1098.67 859.22 1099.16 859.398 1099.21C860.544 1099.32 861.418 1100.28 861.422 1101.43Z" fill="#802D40"/>
<path d="M819.202 1063.62C817.261 1062.7 815.518 1061.41 814.068 1059.83L814.064 1059.82C813.044 1058.8 812.496 1054.91 812.491 1052.5C812.49 1051.27 811.495 1050.28 810.267 1050.28H810.265C809.038 1050.28 808.044 1051.27 808.043 1052.5C808.043 1053.77 808.182 1060.23 810.919 1062.97C811.962 1064.46 812.512 1066.25 812.491 1068.07C812.491 1069.3 813.487 1070.29 814.715 1070.29C815.944 1070.29 816.94 1069.3 816.94 1068.07C816.94 1067.98 816.933 1067.77 816.919 1067.5C817.62 1067.84 818.384 1068.04 819.164 1068.07C820.396 1068.07 821.399 1067.08 821.407 1065.84C821.411 1065.26 821.181 1064.69 820.767 1064.27C820.353 1063.86 819.789 1063.62 819.202 1063.62Z" fill="#802D40"/>
<path d="M808.045 1076.97C806.504 1076.99 804.969 1076.77 803.497 1076.31L803.479 1076.27C803.085 1071.83 802.358 1067.42 801.305 1063.08C801.001 1061.9 799.798 1061.18 798.611 1061.48C797.425 1061.77 796.7 1062.97 796.989 1064.16C798.201 1069.09 798.923 1074.12 799.146 1079.19C798.859 1083.59 801.048 1087.79 804.824 1090.08C805.129 1090.23 805.466 1090.31 805.807 1090.31C806.828 1090.3 807.716 1089.6 807.96 1088.61C808.205 1087.62 807.745 1086.59 806.843 1086.11C805.107 1084.96 803.972 1083.09 803.746 1081.02C805.161 1081.3 806.601 1081.43 808.043 1081.41C809.271 1081.41 810.268 1080.42 810.268 1079.19C810.269 1077.96 809.274 1076.97 808.045 1076.97Z" fill="#802D40"/>
<path d="M814.715 1043.6C814.715 1054.72 794.698 1068.07 790.25 1072.52C789.709 1073.07 789.245 1073.69 788.871 1074.36C788.67 1074.7 788.499 1075.05 788.36 1075.41C787.709 1077.04 787.174 1078.71 786.758 1080.41C786.647 1080.81 786.514 1081.21 786.38 1081.59C786.361 1081.68 786.331 1081.77 786.291 1081.86V1081.88C786.269 1081.97 786.224 1082.06 786.202 1082.13C786.074 1082.49 785.918 1082.85 785.735 1083.19C785.579 1083.46 785.424 1083.7 785.268 1083.95C785.101 1084.19 784.915 1084.41 784.712 1084.62C784.51 1084.82 784.286 1085 784.045 1085.15C783.653 1085.39 783.225 1085.57 782.777 1085.68C782.617 1085.73 782.453 1085.76 782.288 1085.77V1085.79C781.979 1085.84 781.666 1085.86 781.353 1085.86C781.353 1085.86 776.905 1090.31 776.905 1063.62C776.905 1049.72 781.131 1041.27 785.802 1036.64V1036.69C789.738 1032.79 793.987 1031.64 796.299 1032.28C796.322 1032.28 796.322 1032.26 796.344 1032.26C796.545 1032.31 796.739 1032.39 796.922 1032.48C798.457 1033.24 799.947 1033.88 801.371 1034.42V1034.44C801.459 1034.46 801.526 1034.51 801.615 1034.53C801.637 1034.53 801.682 1034.55 801.704 1034.55C801.729 1034.57 801.76 1034.59 801.793 1034.6C803.617 1035.28 805.329 1035.86 806.864 1036.4L807.398 1036.6C807.487 1036.62 807.598 1036.66 807.687 1036.69C807.91 1036.77 808.132 1036.84 808.332 1036.93H808.354C809.692 1037.39 810.975 1037.99 812.18 1038.73L812.202 1038.75C812.683 1039.1 813.117 1039.5 813.492 1039.95V1039.98L813.514 1040C813.67 1040.22 813.848 1040.44 814.003 1040.69C814.026 1040.71 814.026 1040.73 814.048 1040.76C814.193 1041.01 814.312 1041.28 814.404 1041.56C814.512 1041.87 814.586 1042.19 814.626 1042.51C814.691 1042.87 814.721 1043.24 814.715 1043.6Z" fill="#802D40"/>
<path d="M852.526 1043.6C852.547 1044.51 852.419 1045.41 852.147 1046.27C852.081 1046.43 852.036 1046.58 851.97 1046.74C851.795 1047.18 851.547 1047.58 851.236 1047.94C851.102 1048.1 850.969 1048.23 850.835 1048.36C850.723 1048.5 850.587 1048.61 850.435 1048.7C849.982 1049.02 849.488 1049.29 848.967 1049.5C848.777 1049.59 848.575 1049.66 848.367 1049.7C848.155 1049.77 847.94 1049.83 847.722 1049.88C847.128 1050.01 846.526 1050.11 845.92 1050.16C845.706 1050.19 845.491 1050.21 845.275 1050.21C845.053 1050.23 844.808 1050.25 844.563 1050.25C844.274 1050.28 843.941 1050.28 843.629 1050.28C841.075 1050.4 838.565 1049.57 836.579 1047.96C836.423 1047.83 836.29 1047.67 836.156 1047.54C835.913 1047.25 835.704 1046.93 835.533 1046.58C835.467 1046.43 835.4 1046.25 835.333 1046.07C835.273 1045.91 835.236 1045.74 835.222 1045.56C835.197 1045.39 835.182 1045.22 835.178 1045.05C835.171 1044.86 835.186 1044.68 835.222 1044.49C835.238 1044.31 835.275 1044.13 835.333 1043.96C835.378 1043.83 835.422 1043.71 835.467 1043.58C835.485 1043.53 835.507 1043.48 835.534 1043.43C835.6 1043.23 835.69 1043.04 835.8 1042.87C835.824 1042.84 835.84 1042.81 835.845 1042.78C835.973 1042.55 836.122 1042.34 836.29 1042.14L836.357 1042.07C836.388 1042.01 836.434 1041.95 836.49 1041.91C836.633 1041.72 836.789 1041.55 836.957 1041.38C837.182 1041.15 837.39 1040.9 837.58 1040.65L837.647 1040.58C837.647 1040.56 837.669 1040.53 837.714 1040.49L837.847 1040.29C837.942 1040.18 838.017 1040.06 838.07 1039.93C838.159 1039.8 838.226 1039.67 838.314 1039.51C838.403 1039.36 838.47 1039.2 838.559 1039.04C838.632 1038.92 838.691 1038.8 838.737 1038.67C838.894 1038.29 839.027 1037.9 839.137 1037.51L839.204 1037.38C839.315 1036.93 839.404 1036.51 839.493 1036.06V1036.04C839.516 1035.91 839.538 1035.75 839.56 1035.6C839.605 1035.29 839.627 1034.97 839.649 1034.68C839.675 1034.53 839.69 1034.37 839.694 1034.22C839.694 1034.08 839.716 1033.97 839.716 1033.84V1033.59C839.734 1033.5 839.742 1033.4 839.738 1033.31V1032.93C839.735 1032.1 839.683 1031.28 839.582 1030.46C839.516 1029.88 839.427 1029.37 839.36 1028.97L839.293 1028.61L839.226 1028.26L839.182 1028.03C845.853 1028.03 852.526 1036.93 852.526 1043.6Z" fill="#802D40"/>
</g>
<path fill-rule="evenodd" clip-rule="evenodd" d="M1282.03 1107.15C1293.39 1119.65 1300.68 1134.97 1302.78 1150.74H1286.3C1282.08 1120.69 1254.21 1096.4 1223.84 1096.4C1193.35 1096.4 1171.88 1120.91 1175.91 1151.14C1179.93 1181.38 1207.91 1205.88 1238.41 1205.88C1248.59 1205.88 1257.76 1203.16 1265.31 1198.4L1275.45 1212.34C1262.81 1220.34 1247.26 1223.62 1231.22 1221.68C1215.19 1219.74 1199.55 1212.68 1186.76 1201.61C1173.97 1190.53 1164.74 1176.06 1160.5 1160.45C1156.27 1144.83 1157.26 1128.94 1163.33 1115.26C1169.4 1101.57 1180.21 1090.86 1194.07 1084.78C1207.94 1078.7 1224.08 1077.6 1239.98 1081.64C1255.89 1085.69 1270.68 1094.66 1282.03 1107.15Z" fill="#D75E72"/>
<path fill-rule="evenodd" clip-rule="evenodd" d="M1286.66 1153.44C1287.98 1171.13 1280.55 1186.58 1267.8 1195.88L1278.74 1209.35C1287.11 1203.23 1293.67 1195.11 1297.93 1185.6C1302.18 1176.1 1304.01 1165.46 1303.29 1154.52L1286.66 1153.44Z" fill="#7195F0"/>
<path d="M703 1582V1233.5L494.5 885H354.5C162.029 885 6 1041.03 6 1233.5V1542C6 1564.09 23.9086 1582 46 1582H703Z" fill="#C4C4C4"/>
<path d="M149 1233.5C149 1041.03 305.029 885 497.5 885V885C689.971 885 846 1041.03 846 1233.5V1542C846 1564.09 828.091 1582 806 1582H189C166.909 1582 149 1564.09 149 1542V1233.5Z" fill="#EAEAEA"/>
<path d="M791 1211C791 1362.33 668.326 1485 517 1485C365.674 1485 243 1362.33 243 1211C243 1059.67 365.674 937 517 937C668.326 937 791 1059.67 791 1211Z" fill="#FEFCFC"/>
<path d="M516.5 1440C643.249 1440 746 1337.25 746 1210.5C746 1083.75 643.249 981 516.5 981C389.751 981 287 1083.75 287 1210.5C287 1337.25 389.751 1440 516.5 1440Z" fill="#FEFCFC" stroke="#3B4861" stroke-width="4"/>
<circle cx="516.5" cy="1210.5" r="186.5" fill="#506181"/>
<path fill-rule="evenodd" clip-rule="evenodd" d="M457.5 1387.47C531.585 1362.79 585 1292.88 585 1210.5C585 1128.12 531.586 1058.21 457.5 1033.53C383.415 1058.21 330 1128.12 330 1210.5C330 1292.88 383.414 1362.79 457.5 1387.47Z" fill="#3B4861"/>
<path d="M701.5 1588V1385H919.5V1588H701.5Z" fill="#C4C4C4"/>
<path d="M821 1588V1385H946V1588H821Z" fill="#DEDEDE"/>
<path d="M541 1380V1391C541 1392.66 542.343 1394 544 1394H1348C1349.66 1394 1351 1392.66 1351 1391V1380C1351 1378.34 1349.66 1377 1348 1377H544C542.343 1377 541 1378.34 541 1380Z" fill="#C6DADB"/>
<path d="M541 1380V1391C541 1392.66 542.343 1394 544 1394H1206C1207.66 1394 1209 1392.66 1209 1391V1380C1209 1378.34 1207.66 1377 1206 1377H544C542.343 1377 541 1378.34 541 1380Z" fill="#B8C4C5"/>
<path d="M526 1367V1377C526 1378.66 527.343 1380 529 1380H1374C1375.66 1380 1377 1378.66 1377 1377V1367C1377 1365.34 1375.66 1364 1374 1364H529C527.343 1364 526 1365.34 526 1367Z" fill="#9AD3D6"/>
<path d="M526 1367V1377C526 1378.66 527.343 1380 529 1380H1198C1199.66 1380 1201 1378.66 1201 1377V1367C1201 1365.34 1199.66 1364 1198 1364H529C527.343 1364 526 1365.34 526 1367Z" fill="#8CBDBF"/>
<defs>
<clipPath id="clip0">
<rect width="55" height="55" fill="white" transform="translate(690 933)"/>
</clipPath>
<clipPath id="clip1">
<rect width="129" height="129" fill="white" transform="translate(758 988)"/>
</clipPath>
</defs>
</svg>
