<svg width="64" height="50" viewBox="0 0 64 50" fill="none" xmlns="http://www.w3.org/2000/svg">
<path d="M26.1797 17.8306H47.6203C55.4302 17.8306 60.6045 25.932 57.3203 33.0178L52.7821 42.8087C51.0311 46.5865 47.246 49.0039 43.0822 49.0039H30.7178C26.554 49.0039 22.7689 46.5865 21.0179 42.8087L16.4798 33.0178C13.1955 25.932 18.3698 17.8306 26.1797 17.8306Z" fill="white"/>
<path fill-rule="evenodd" clip-rule="evenodd" d="M10.445 16.6477C8.47789 15.517 8.42287 11.0634 10.37 6.46675C11.5783 3.6144 13.2833 1.35419 14.9244 0.199174C10.2733 -0.127356 5.09006 3.53258 2.41659 9.45437C-0.458974 15.8238 0.548478 22.6404 4.54519 25.6457C5.29033 26.206 6.3061 25.8154 6.68971 24.9657L10.445 16.6477Z" fill="white"/>
<path fill-rule="evenodd" clip-rule="evenodd" d="M18.0138 10.3639C16.1606 14.4082 13.3285 17.1218 11.2569 16.9129L8.38916 23.2651C8.06948 23.9732 8.39032 24.8301 9.16293 24.9118C12.1187 25.2246 15.5728 22.7009 17.4035 18.6458C18.7457 15.6729 18.8934 12.5898 18.0138 10.3639Z" fill="white"/>
<path fill-rule="evenodd" clip-rule="evenodd" d="M55.6167 14.3882C56.6097 16.2261 57.9829 17.377 58.9515 17.1368L60.3686 19.918C60.5802 20.3334 60.4081 20.8588 59.9431 20.8911C58.6032 20.9839 57.0339 19.8952 56.1285 18.1183C55.4632 16.8126 55.3093 15.4353 55.6167 14.3882Z" fill="white"/>
<path fill-rule="evenodd" clip-rule="evenodd" d="M59.4087 16.8845L60.989 19.986C61.4123 20.8166 62.4721 21.153 63.031 20.4068C64.2732 18.7481 64.353 15.9745 63.0544 13.4259C61.7952 10.9546 59.6031 9.40741 57.582 9.34326C58.1809 9.96849 58.7577 10.8441 59.2067 11.8753C60.1461 14.033 60.2054 16.1366 59.4087 16.8845Z" fill="white"/>
</svg>
