<svg width="175" height="175" viewBox="0 0 175 175" fill="none" xmlns="http://www.w3.org/2000/svg">
<circle cx="87.3887" cy="87.3887" r="69.3887" fill="#1DA4AC"/>
<g clip-path="url(#clip0)" filter="url(#filter0_d)">
<path fill-rule="evenodd" clip-rule="evenodd" d="M108.901 50.1875H67.4014C66.0256 50.1875 64.7061 50.734 63.7333 51.7069C62.7604 52.6797 62.2139 53.9992 62.2139 55.375V117.625C62.2139 119.001 62.7604 120.32 63.7333 121.293C64.7061 122.266 66.0256 122.812 67.4014 122.812H108.901C110.277 122.812 111.597 122.266 112.569 121.293C113.542 120.32 114.089 119.001 114.089 117.625V55.375C114.089 53.9992 113.542 52.6797 112.569 51.7069C111.597 50.734 110.277 50.1875 108.901 50.1875ZM67.4014 45C64.6497 45 62.0108 46.0931 60.0651 48.0388C58.1194 49.9845 57.0264 52.6234 57.0264 55.375V117.625C57.0264 120.377 58.1194 123.016 60.0651 124.961C62.0108 126.907 64.6497 128 67.4014 128H108.901C111.653 128 114.292 126.907 116.238 124.961C118.183 123.016 119.276 120.377 119.276 117.625V55.375C119.276 52.6234 118.183 49.9845 116.238 48.0388C114.292 46.0931 111.653 45 108.901 45H67.4014Z" fill="white"/>
<path d="M67.4014 57.9688C67.4014 57.2808 67.6746 56.6211 68.1611 56.1347C68.6475 55.6483 69.3072 55.375 69.9951 55.375H106.308C106.996 55.375 107.655 55.6483 108.142 56.1347C108.628 56.6211 108.901 57.2808 108.901 57.9688V68.3438C108.901 69.0317 108.628 69.6914 108.142 70.1778C107.655 70.6642 106.996 70.9375 106.308 70.9375H69.9951C69.3072 70.9375 68.6475 70.6642 68.1611 70.1778C67.6746 69.6914 67.4014 69.0317 67.4014 68.3438V57.9688ZM67.4014 78.7188C67.4014 78.0308 67.6746 77.3711 68.1611 76.8847C68.6475 76.3983 69.3072 76.125 69.9951 76.125H75.1826C75.8705 76.125 76.5303 76.3983 77.0167 76.8847C77.5031 77.3711 77.7764 78.0308 77.7764 78.7188V83.9062C77.7764 84.5942 77.5031 85.2539 77.0167 85.7403C76.5303 86.2267 75.8705 86.5 75.1826 86.5H69.9951C69.3072 86.5 68.6475 86.2267 68.1611 85.7403C67.6746 85.2539 67.4014 84.5942 67.4014 83.9062V78.7188ZM67.4014 94.2812C67.4014 93.5933 67.6746 92.9336 68.1611 92.4472C68.6475 91.9608 69.3072 91.6875 69.9951 91.6875H75.1826C75.8705 91.6875 76.5303 91.9608 77.0167 92.4472C77.5031 92.9336 77.7764 93.5933 77.7764 94.2812V99.4688C77.7764 100.157 77.5031 100.816 77.0167 101.303C76.5303 101.789 75.8705 102.062 75.1826 102.062H69.9951C69.3072 102.062 68.6475 101.789 68.1611 101.303C67.6746 100.816 67.4014 100.157 67.4014 99.4688V94.2812ZM67.4014 109.844C67.4014 109.156 67.6746 108.496 68.1611 108.01C68.6475 107.523 69.3072 107.25 69.9951 107.25H75.1826C75.8705 107.25 76.5303 107.523 77.0167 108.01C77.5031 108.496 77.7764 109.156 77.7764 109.844V115.031C77.7764 115.719 77.5031 116.379 77.0167 116.865C76.5303 117.352 75.8705 117.625 75.1826 117.625H69.9951C69.3072 117.625 68.6475 117.352 68.1611 116.865C67.6746 116.379 67.4014 115.719 67.4014 115.031V109.844ZM82.9639 78.7188C82.9639 78.0308 83.2371 77.3711 83.7236 76.8847C84.21 76.3983 84.8697 76.125 85.5576 76.125H90.7451C91.433 76.125 92.0928 76.3983 92.5792 76.8847C93.0656 77.3711 93.3389 78.0308 93.3389 78.7188V83.9062C93.3389 84.5942 93.0656 85.2539 92.5792 85.7403C92.0928 86.2267 91.433 86.5 90.7451 86.5H85.5576C84.8697 86.5 84.21 86.2267 83.7236 85.7403C83.2371 85.2539 82.9639 84.5942 82.9639 83.9062V78.7188ZM82.9639 94.2812C82.9639 93.5933 83.2371 92.9336 83.7236 92.4472C84.21 91.9608 84.8697 91.6875 85.5576 91.6875H90.7451C91.433 91.6875 92.0928 91.9608 92.5792 92.4472C93.0656 92.9336 93.3389 93.5933 93.3389 94.2812V99.4688C93.3389 100.157 93.0656 100.816 92.5792 101.303C92.0928 101.789 91.433 102.062 90.7451 102.062H85.5576C84.8697 102.062 84.21 101.789 83.7236 101.303C83.2371 100.816 82.9639 100.157 82.9639 99.4688V94.2812ZM82.9639 109.844C82.9639 109.156 83.2371 108.496 83.7236 108.01C84.21 107.523 84.8697 107.25 85.5576 107.25H90.7451C91.433 107.25 92.0928 107.523 92.5792 108.01C93.0656 108.496 93.3389 109.156 93.3389 109.844V115.031C93.3389 115.719 93.0656 116.379 92.5792 116.865C92.0928 117.352 91.433 117.625 90.7451 117.625H85.5576C84.8697 117.625 84.21 117.352 83.7236 116.865C83.2371 116.379 82.9639 115.719 82.9639 115.031V109.844ZM98.5264 78.7188C98.5264 78.0308 98.7996 77.3711 99.2861 76.8847C99.7725 76.3983 100.432 76.125 101.12 76.125H106.308C106.996 76.125 107.655 76.3983 108.142 76.8847C108.628 77.3711 108.901 78.0308 108.901 78.7188V83.9062C108.901 84.5942 108.628 85.2539 108.142 85.7403C107.655 86.2267 106.996 86.5 106.308 86.5H101.12C100.432 86.5 99.7725 86.2267 99.2861 85.7403C98.7996 85.2539 98.5264 84.5942 98.5264 83.9062V78.7188ZM98.5264 94.2812C98.5264 93.5933 98.7996 92.9336 99.2861 92.4472C99.7725 91.9608 100.432 91.6875 101.12 91.6875H106.308C106.996 91.6875 107.655 91.9608 108.142 92.4472C108.628 92.9336 108.901 93.5933 108.901 94.2812V115.031C108.901 115.719 108.628 116.379 108.142 116.865C107.655 117.352 106.996 117.625 106.308 117.625H101.12C100.432 117.625 99.7725 117.352 99.2861 116.865C98.7996 116.379 98.5264 115.719 98.5264 115.031V94.2812Z" fill="white"/>
</g>
<g filter="url(#filter1_d)">
<circle cx="118.5" cy="117.5" r="15.0641" fill="#F3E078"/>
<g filter="url(#filter2_d)">
<path fill-rule="evenodd" clip-rule="evenodd" d="M116.78 107.256H120.696V109.215H124.613V113.131H116.78L116.604 113.147C116.378 113.188 116.174 113.307 116.026 113.483C115.879 113.659 115.799 113.881 115.799 114.111C115.799 114.34 115.879 114.562 116.026 114.738C116.174 114.914 116.378 115.033 116.604 115.074L116.78 115.09H120.696L121.018 115.099C122.288 115.18 123.477 115.752 124.332 116.694C125.188 117.636 125.643 118.874 125.602 120.146C125.56 121.418 125.024 122.624 124.109 123.508C123.193 124.392 121.969 124.884 120.696 124.881V126.84H116.78V124.881H112.863V120.965H120.696L120.873 120.949C121.098 120.908 121.303 120.789 121.45 120.613C121.597 120.437 121.677 120.215 121.677 119.986C121.677 119.756 121.597 119.534 121.45 119.358C121.303 119.182 121.098 119.063 120.873 119.022L120.696 119.006H116.78L116.459 118.997C115.188 118.916 114 118.344 113.144 117.402C112.288 116.46 111.833 115.222 111.875 113.95C111.916 112.678 112.452 111.472 113.368 110.588C114.283 109.704 115.507 109.212 116.78 109.215V107.256Z" fill="#EBCB1B"/>
</g>
<circle cx="118.5" cy="117.5" r="15.0641" fill="black" fill-opacity="0.15"/>
</g>
<g filter="url(#filter3_d)">
<ellipse cx="111.269" cy="123.526" rx="15.0641" ry="15.0641" fill="#F3E078"/>
<g filter="url(#filter4_d)">
<path fill-rule="evenodd" clip-rule="evenodd" d="M109.549 113.282H113.466V115.24H117.382V119.157H109.549L109.373 119.173C109.147 119.214 108.943 119.332 108.796 119.508C108.648 119.685 108.568 119.907 108.568 120.136C108.568 120.366 108.648 120.588 108.796 120.764C108.943 120.94 109.147 121.059 109.373 121.1L109.549 121.115H113.466L113.787 121.125C115.057 121.206 116.246 121.777 117.101 122.719C117.957 123.662 118.412 124.9 118.371 126.172C118.329 127.444 117.793 128.65 116.878 129.534C115.962 130.417 114.738 130.91 113.466 130.907V132.865H109.549V130.907H105.632V126.99H113.466L113.642 126.975C113.868 126.934 114.072 126.815 114.219 126.639C114.366 126.463 114.446 126.241 114.446 126.011C114.446 125.782 114.366 125.56 114.219 125.383C114.072 125.207 113.868 125.089 113.642 125.048L113.466 125.032H109.549L109.228 125.022C107.958 124.942 106.769 124.37 105.913 123.428C105.057 122.486 104.602 121.247 104.644 119.975C104.686 118.703 105.221 117.498 106.137 116.614C107.052 115.73 108.276 115.237 109.549 115.24V113.282Z" fill="#EBCB1B"/>
</g>
</g>
<defs>
<filter id="filter0_d" x="46.6514" y="45" width="83" height="87" filterUnits="userSpaceOnUse" color-interpolation-filters="sRGB">
<feFlood flood-opacity="0" result="BackgroundImageFix"/>
<feColorMatrix in="SourceAlpha" type="matrix" values="0 0 0 0 0 0 0 0 0 0 0 0 0 0 0 0 0 0 127 0"/>
<feOffset dy="4"/>
<feColorMatrix type="matrix" values="0 0 0 0 0.368627 0 0 0 0 0.368627 0 0 0 0 0.368627 0 0 0 0.75 0"/>
<feBlend mode="normal" in2="BackgroundImageFix" result="effect1_dropShadow"/>
<feBlend mode="normal" in="SourceGraphic" in2="effect1_dropShadow" result="shape"/>
</filter>
<filter id="filter1_d" x="103.436" y="102.436" width="31.1282" height="32.1282" filterUnits="userSpaceOnUse" color-interpolation-filters="sRGB">
<feFlood flood-opacity="0" result="BackgroundImageFix"/>
<feColorMatrix in="SourceAlpha" type="matrix" values="0 0 0 0 0 0 0 0 0 0 0 0 0 0 0 0 0 0 127 0"/>
<feOffset dx="1" dy="2"/>
<feColorMatrix type="matrix" values="0 0 0 0 0 0 0 0 0 0 0 0 0 0 0 0 0 0 0.25 0"/>
<feBlend mode="normal" in2="BackgroundImageFix" result="effect1_dropShadow"/>
<feBlend mode="normal" in="SourceGraphic" in2="effect1_dropShadow" result="shape"/>
</filter>
<filter id="filter2_d" x="111.872" y="107.256" width="13.7322" height="20.5833" filterUnits="userSpaceOnUse" color-interpolation-filters="sRGB">
<feFlood flood-opacity="0" result="BackgroundImageFix"/>
<feColorMatrix in="SourceAlpha" type="matrix" values="0 0 0 0 0 0 0 0 0 0 0 0 0 0 0 0 0 0 127 0"/>
<feOffset dy="1"/>
<feColorMatrix type="matrix" values="0 0 0 0 0 0 0 0 0 0 0 0 0 0 0 0 0 0 0.25 0"/>
<feBlend mode="normal" in2="BackgroundImageFix" result="effect1_dropShadow"/>
<feBlend mode="normal" in="SourceGraphic" in2="effect1_dropShadow" result="shape"/>
</filter>
<filter id="filter3_d" x="96.2051" y="108.461" width="31.1282" height="32.1282" filterUnits="userSpaceOnUse" color-interpolation-filters="sRGB">
<feFlood flood-opacity="0" result="BackgroundImageFix"/>
<feColorMatrix in="SourceAlpha" type="matrix" values="0 0 0 0 0 0 0 0 0 0 0 0 0 0 0 0 0 0 127 0"/>
<feOffset dx="1" dy="2"/>
<feColorMatrix type="matrix" values="0 0 0 0 0 0 0 0 0 0 0 0 0 0 0 0 0 0 0.25 0"/>
<feBlend mode="normal" in2="BackgroundImageFix" result="effect1_dropShadow"/>
<feBlend mode="normal" in="SourceGraphic" in2="effect1_dropShadow" result="shape"/>
</filter>
<filter id="filter4_d" x="104.641" y="113.282" width="13.7322" height="20.5833" filterUnits="userSpaceOnUse" color-interpolation-filters="sRGB">
<feFlood flood-opacity="0" result="BackgroundImageFix"/>
<feColorMatrix in="SourceAlpha" type="matrix" values="0 0 0 0 0 0 0 0 0 0 0 0 0 0 0 0 0 0 127 0"/>
<feOffset dy="1"/>
<feColorMatrix type="matrix" values="0 0 0 0 0 0 0 0 0 0 0 0 0 0 0 0 0 0 0.25 0"/>
<feBlend mode="normal" in2="BackgroundImageFix" result="effect1_dropShadow"/>
<feBlend mode="normal" in="SourceGraphic" in2="effect1_dropShadow" result="shape"/>
</filter>
<clipPath id="clip0">
<rect width="83" height="83" fill="white" transform="translate(46.6514 45)"/>
</clipPath>
</defs>
</svg>
